<svg width="30" height="25" viewBox="0 0 30 25" fill="none" xmlns="http://www.w3.org/2000/svg">
    <path d="M0.453104 11.466C3.5222 9.78888 6.94812 8.38903 10.1491 6.98206C15.6561 4.67755 21.185 2.41298 26.7697 0.304695C27.8562 -0.0545145 29.8086 -0.405758 30 1.19173C29.8951 3.45304 29.4639 5.70111 29.1682 7.94918C28.4175 12.8929 27.5497 17.8197 26.7036 22.7471C26.412 24.3885 24.3396 25.2381 23.0136 24.1877C19.8268 22.0522 16.6155 19.9373 13.4694 17.7522C12.4388 16.7133 13.3945 15.2213 14.3149 14.4794C16.9396 11.9131 19.7232 9.73273 22.2107 7.03383C22.8818 5.42627 20.8991 6.78106 20.2452 7.19622C16.6519 9.65288 13.1465 12.2595 9.35806 14.4186C7.42293 15.4754 5.16749 14.5723 3.23323 13.9826C1.49895 13.2702 -1.04245 12.5525 0.452929 11.4663L0.453104 11.466Z"
          fill="#ECF8FF"/>
</svg>
