<svg width="30" height="30" viewBox="0 0 30 30" fill="none" xmlns="http://www.w3.org/2000/svg">
    <path d="M7.81251 9.375H5.62501C5.00001 9.375 4.875 9.66922 4.875 9.99366C4.875 10.5731 5.61661 13.4468 8.32807 17.2474C10.1357 19.843 12.6825 21.25 15 21.25C16.3905 21.25 16.5625 20.9375 16.5625 20.3992V18.4375C16.5625 17.8125 16.6942 17.6878 17.1346 17.6878C17.459 17.6878 18.0152 17.85 19.313 19.1014C20.7962 20.5846 21.0407 21.25 21.875 21.25H24.0625C24.6875 21.25 25 20.9375 24.8197 20.3208C24.6225 19.7062 23.9143 18.8144 22.9747 17.7573C22.4648 17.1547 21.7 16.5059 21.4683 16.1814C21.1438 15.7643 21.2365 15.5788 21.4683 15.2081L21.5072 15.1529C21.8368 14.6844 24.1533 11.3627 24.4115 10.1791C24.5505 9.71559 24.4115 9.375 23.75 9.375H21.5625C21.0063 9.375 20.7499 9.66922 20.6108 9.99366C20.6108 9.99366 19.4984 12.7051 17.9225 14.4664C17.4127 14.9763 17.1809 15.1385 16.9028 15.1385C16.7638 15.1385 16.5625 14.9763 16.5625 14.5128V10.1791C16.5625 9.62289 16.4011 9.375 15.9375 9.375H12.5C12.1524 9.375 11.9434 9.63315 11.9434 9.87781C11.9434 10.4051 12.7313 10.5267 12.8125 12.0099V15.2312C12.8125 15.9375 12.685 16.0655 12.4069 16.0655C11.6653 16.0655 9.8614 13.3419 8.79153 10.2254C8.58187 9.61969 8.37157 9.375 7.81251 9.375Z"
          fill="#ECF8FF"/>
</svg>
